<svg xmlns="http://www.w3.org/2000/svg" xml:space="preserve" width="823.121pt" height="150.015pt" viewBox="0 0 1097.4946 200.02"><defs><linearGradient id="a" x1="0" x2="1" y1="0" y2="0" gradientTransform="matrix(-47.9269 0 0 47.9269 96.388 600.229)" gradientUnits="userSpaceOnUse" spreadMethod="pad"><stop offset="0" style="stop-opacity:1;stop-color:#fff"/><stop offset="0.31876609" style="stop-opacity:1;stop-color:#00adef"/><stop offset="0.544937" style="stop-opacity:1;stop-color:#00adef"/><stop offset="0.63260483" style="stop-opacity:1;stop-color:#00adef"/><stop offset="1" style="stop-opacity:1;stop-color:#2e3192"/></linearGradient><linearGradient id="b" x1="0" x2="1" y1="0" y2="0" gradientTransform="matrix(-60.0677 0 0 60.0677 106.067 600.229)" gradientUnits="userSpaceOnUse" spreadMethod="pad"><stop offset="0" style="stop-opacity:1;stop-color:#fff"/><stop offset="0.31876609" style="stop-opacity:1;stop-color:#00adef"/><stop offset="0.544937" style="stop-opacity:1;stop-color:#00adef"/><stop offset="0.63260483" style="stop-opacity:1;stop-color:#00adef"/><stop offset="1" style="stop-opacity:1;stop-color:#2e3192"/></linearGradient></defs><path d="m0 0-1.844.01V7.008h-3.753V-5.391h-8.475l.019 7.165 6.587.034v3.528H-17.65V-8.968h12.053v-5.798h3.753v11.281L0-3.504v-11.262h3.712V7.008H0Z" style="fill:#110f0d;fill-opacity:1;fill-rule:nonzero;stroke:none" transform="matrix(4.7549 0 0 -4.7549 373.954 85.15)"/><path d="M0 0v3h-3.755v-13.02H0v6.446h3.91V0S.052-.012 0 0" style="fill:#110f0d;fill-opacity:1;fill-rule:nonzero;stroke:none" transform="matrix(4.7549 0 0 -4.7549 499.512 66.255)"/><path d="M0 0a2.655 2.655 0 0 0-1.961-.81c-.775 0-1.419.266-1.963.81a2.656 2.656 0 0 0-.811 1.963 2.7 2.7 0 0 0 .812 1.977 2.63 2.63 0 0 0 1.962.825c.772 0 1.412-.27 1.957-.825A2.692 2.692 0 0 0 .81 1.963C.81 1.188.545.548 0 0m4.239 8.429v9.541H-9.433v-3.5H.56V8.429h-3.206v3.547h-3.771V8.429h-7.12V4.776h6.04a6.035 6.035 0 0 1-.665-2.813c0-1.691.614-3.159 1.829-4.373 1.211-1.212 2.683-1.827 4.372-1.827 1.708 0 3.183.615 4.386 1.829C3.63-1.194 4.239.276 4.239 1.963a6.062 6.062 0 0 1-.661 2.813h4.89v3.653H5.367Z" style="fill:#110f0d;fill-opacity:1;fill-rule:nonzero;stroke:none" transform="matrix(4.7549 0 0 -4.7549 704.435 137.431)"/><path d="M0 0a1.96 1.96 0 0 0-1.446.606c-.408.406-.606.88-.606 1.447 0 .566.198 1.042.606 1.449.408.408.882.605 1.446.605.567 0 1.04-.197 1.448-.605.408-.41.608-.883.608-1.449 0-.566-.2-1.039-.608-1.447A1.962 1.962 0 0 0 0 0m7.696 4.004v-8.216c-.014-.001 0-.006 0-.006H1.838v1.088a5.714 5.714 0 0 1 2.658 1.942C5.231-.223 5.604.9 5.604 2.146c0 .479-.055.94-.166 1.368-.063.25-.174.478-.267.717h1.451V7.67H1.96v2.373h-3.756V7.67h-4.975V4.226s1.464-.009 1.604 0c-.094-.236-.205-.464-.269-.712a5.623 5.623 0 0 1-.163-1.368c0-1.269.377-2.401 1.122-3.363A5.75 5.75 0 0 1-1.772-3.17v-1.048h-5.742v-3.533h15.21v-4.689h3.745V9.303H7.696s-.021-4.274 0-5.299" style="fill:#110f0d;fill-opacity:1;fill-rule:nonzero;stroke:none" transform="matrix(4.7549 0 0 -4.7549 797.721 96.22)"/><path d="M0 0a2.755 2.755 0 0 0 2.064.867c.811 0 1.487-.281 2.06-.867.575-.586.856-1.267.856-2.083 0-.813-.279-1.489-.853-2.063-.573-.575-1.249-.852-2.063-.852-.818 0-1.494.277-2.067.852-.574.574-.851 1.248-.851 2.063C-.854-1.267-.576-.586 0 0m2.064-8.609c1.797 0 3.35.648 4.618 1.925 1.267 1.278 1.909 2.828 1.909 4.601 0 1.798-.644 3.353-1.91 4.618-1.268 1.269-2.821 1.91-4.617 1.91-1.778 0-3.325-.641-4.603-1.908-1.277-1.267-1.926-2.82-1.926-4.62 0-1.776.649-3.324 1.924-4.603C-1.263-7.961.285-8.609 2.064-8.609" style="fill:#110f0d;fill-opacity:1;fill-rule:nonzero;stroke:none" transform="matrix(4.7549 0 0 -4.7549 900.36 70.506)"/><path d="M0 0h-15.886v-3.65H0v-4.61h3.827v21.836H0Z" style="fill:#110f0d;fill-opacity:1;fill-rule:nonzero;stroke:none" transform="matrix(4.7549 0 0 -4.7549 953.278 116.386)"/><path d="M0 0c-.002.032-.008 3.792-.008 3.792h-3.77S-3.77.007-3.778 0c-.003-.005-9.159 0-9.159 0v-3.573H9.068V0S.037-.005 0 0" style="fill:#110f0d;fill-opacity:1;fill-rule:nonzero;stroke:none" transform="matrix(4.7549 0 0 -4.7549 1054.377 126.28)"/><path d="M0 0a2.22 2.22 0 0 0 4.438 0A2.22 2.22 0 0 0 0 0m6.164-3.947C7.259-2.853 7.816-1.51 7.816.041c0 .616-.087 1.205-.263 1.75a5.77 5.77 0 0 1-.461 1.023h1.304v3.188H3.845v2.271H.519s.007-2.244 0-2.271c-.058-.006-4.672 0-4.672 0V2.785h1.41a6.689 6.689 0 0 1-.44-.987A5.414 5.414 0 0 1-3.462.041c0-1.553.555-2.895 1.65-3.988C-.716-5.044.625-5.6 2.176-5.6c1.551 0 2.893.556 3.988 1.653" style="fill:#110f0d;fill-opacity:1;fill-rule:nonzero;stroke:none" transform="matrix(4.7549 0 0 -4.7549 428.436 87.272)"/><path d="M0 0c-.002.005 0 3.945 0 3.945h-3.633v-7.509H9.306L9.309 0S.039-.029 0 0" style="fill:#110f0d;fill-opacity:1;fill-rule:nonzero;stroke:none" transform="matrix(4.7549 0 0 -4.7549 455.31 138.41)"/><path d="M0 0a2.658 2.658 0 0 0-1.961-.81c-.776 0-1.417.266-1.962.81a2.653 2.653 0 0 0-.812 1.963c0 .775.266 1.423.813 1.977.546.555 1.186.825 1.961.825.773 0 1.413-.27 1.959-.825A2.702 2.702 0 0 0 .81 1.963 2.66 2.66 0 0 0 0 0m4.24 14.16v3.81H.495V8.107l-.58.447s-2.581 2.228-3.52 3.091c-.943.864-1.73 1.749-1.73 1.768.064.402.246 1.259.246 2.344v2.216l-4.037-.003v-2.213c0-2.854-2.066-4.574-2.892-5.368-.832-.804-3.307-2.493-3.307-2.493l2.351-2.622s1.981 1.249 3.021 2.137a20.294 20.294 0 0 1 2.584 2.615c.611-.557 1.775-1.541 2.83-2.418a6.261 6.261 0 0 1-1.795-1.257c-1.215-1.204-1.83-2.679-1.83-4.388 0-1.691.615-3.159 1.828-4.373 1.215-1.212 2.685-1.827 4.375-1.827 1.708 0 3.185.615 4.386 1.829C3.629-1.194 4.24.276 4.24 1.963v8.647c.023 0 0 .004 0 .004h3.903v3.546H4.24s.054-.006 0 0" style="fill:#110f0d;fill-opacity:1;fill-rule:nonzero;stroke:none" transform="matrix(4.7549 0 0 -4.7549 595.12 137.431)"/><path d="M0 0c2.616-2.715 7.252-5.186 7.252-5.186l2.295 2.891C4.954.277 2.792 2.395 1.945 3.373a7.24 7.24 0 0 1 .361 2.234v1.579h-3.983V5.703c0-.703.074-3.881-7.387-8.023l2.475-2.672S-2.637-3.143 0 0" style="fill:#110f0d;fill-opacity:1;fill-rule:nonzero;stroke:none" transform="matrix(4.7549 0 0 -4.7549 1044.558 85.626)"/><path d="M58.183 621.231v-42.004l37.699-.002v42.006z" style="fill:url(#a);stroke:none" transform="matrix(4.7549 0 0 -4.7549 -182.77 2953.997)"/><path d="M0 0c.374 0 .675.321.675.714 0 .396-.301.715-.675.715-.371 0-.675-.319-.675-.715C-.675.321-.371 0 0 0" style="fill:#fff;fill-opacity:1;fill-rule:nonzero;stroke:none" transform="matrix(4.7549 0 0 -4.7549 147.284 12.439)"/><path d="M0 0c0-.173.131-.313.293-.312A.314.314 0 0 1 .585 0c0 .17-.131.306-.292.306A.299.299 0 0 1 0 0" style="fill:#fff;fill-opacity:1;fill-rule:nonzero;stroke:none" transform="matrix(4.7549 0 0 -4.7549 185.242 113.214)"/><path d="M0 0c-.183 0-.336-.16-.336-.357 0-.196.153-.355.336-.355.186 0 .335.159.335.355C.335-.16.186 0 0 0" style="fill:#fff;fill-opacity:1;fill-rule:nonzero;stroke:none" transform="matrix(4.7549 0 0 -4.7549 186.797 142.343)"/><path d="M0 0a.49.49 0 0 1-.477-.504c0-.28.212-.511.477-.508a.514.514 0 0 1 .477.508A.49.49 0 0 1 0 0" style="fill:#fff;fill-opacity:1;fill-rule:nonzero;stroke:none" transform="matrix(4.7549 0 0 -4.7549 156.993 37.25)"/><path d="M0 0c0 .287-.219.516-.486.516A.502.502 0 0 1-.977 0c0-.287.218-.522.491-.518C-.242-.516 0-.287 0 0" style="fill:#fff;fill-opacity:1;fill-rule:nonzero;stroke:none" transform="matrix(4.7549 0 0 -4.7549 179.208 91.522)"/><path d="M0 0a.656.656 0 0 1 .612.646c0 .357-.274.644-.612.644-.336 0-.61-.287-.61-.644C-.61.291-.336-.003 0 0" style="fill:#fff;fill-opacity:1;fill-rule:nonzero;stroke:none" transform="matrix(4.7549 0 0 -4.7549 176.842 116.771)"/><path d="M0 0c0-.145.109-.264.246-.262A.264.264 0 0 1 .49 0C.49.143.379.261.246.261.109.261 0 .143 0 0" style="fill:#fff;fill-opacity:1;fill-rule:nonzero;stroke:none" transform="matrix(4.7549 0 0 -4.7549 175.813 102.853)"/><path d="M0 0a.549.549 0 0 1-.536-.564c0-.313.238-.573.536-.569.27.006.534.256.534.569C.534-.252.292 0 0 0" style="fill:#fff;fill-opacity:1;fill-rule:nonzero;stroke:none" transform="matrix(4.7549 0 0 -4.7549 166.707 100.029)"/><path d="M0 0a.223.223 0 0 1-.216.229A.224.224 0 0 1-.436 0c0-.127.099-.232.22-.229C-.107-.229 0-.127 0 0" style="fill:#fff;fill-opacity:1;fill-rule:nonzero;stroke:none" transform="matrix(4.7549 0 0 -4.7549 187.93 91.95)"/><path d="M0 0a.421.421 0 0 1 .393.414A.404.404 0 0 1 0 .828.405.405 0 0 1-.394.414C-.394.186-.217-.005 0 0" style="fill:#fff;fill-opacity:1;fill-rule:nonzero;stroke:none" transform="matrix(4.7549 0 0 -4.7549 186.542 62.903)"/><path d="M0 0c.279.004.554.266.554.586 0 .325-.248.586-.554.586-.307 0-.554-.261-.554-.586 0-.32.247-.588.554-.586" style="fill:#fff;fill-opacity:1;fill-rule:nonzero;stroke:none" transform="matrix(4.7549 0 0 -4.7549 186.512 74.034)"/><path d="M0 0c0 .278-.213.505-.475.505C-.738.505-.952.278-.952 0c0-.276.214-.509.477-.502A.509.509 0 0 1 0 0" style="fill:#fff;fill-opacity:1;fill-rule:nonzero;stroke:none" transform="matrix(4.7549 0 0 -4.7549 188.87 81.238)"/><path d="M0 0c.259 0 .469.221.469.495 0 .273-.21.494-.469.494-.257 0-.466-.221-.466-.494C-.466.221-.257 0 0 0" style="fill:#fff;fill-opacity:1;fill-rule:nonzero;stroke:none" transform="matrix(4.7549 0 0 -4.7549 117.347 10.908)"/><path d="M0 0c.216 0 .391.187.391.417A.403.403 0 0 1 0 .831.405.405 0 0 1-.394.417C-.394.187-.217 0 0 0" style="fill:#fff;fill-opacity:1;fill-rule:nonzero;stroke:none" transform="matrix(4.7549 0 0 -4.7549 127.855 10.908)"/><path d="M0 0a.422.422 0 0 1-.412-.432c0-.239.184-.436.412-.433a.439.439 0 0 1 .408.433A.42.42 0 0 1 0 0" style="fill:#fff;fill-opacity:1;fill-rule:nonzero;stroke:none" transform="matrix(4.7549 0 0 -4.7549 157.112 48.472)"/><path d="M0 0a.396.396 0 0 1 .368.392A.378.378 0 0 1 0 .779.377.377 0 0 1-.369.392C-.369.178-.204-.001 0 0" style="fill:#fff;fill-opacity:1;fill-rule:nonzero;stroke:none" transform="matrix(4.7549 0 0 -4.7549 167.383 52.385)"/><path d="M0 0a.336.336 0 0 1 .313.333c0 .183-.14.331-.313.331A.323.323 0 0 1-.313.333C-.313.148-.171-.001 0 0" style="fill:#fff;fill-opacity:1;fill-rule:nonzero;stroke:none" transform="matrix(4.7549 0 0 -4.7549 177.1 52.11)"/><path d="M0 0c.129 0 .235.115.235.252S.129.502 0 .502c-.131 0-.236-.113-.236-.25S-.131 0 0 0" style="fill:#fff;fill-opacity:1;fill-rule:nonzero;stroke:none" transform="matrix(4.7549 0 0 -4.7549 167.095 20.109)"/><path d="M0 0c.129 0 .235.112.235.252C.235.389.129.501 0 .501A.243.243 0 0 1-.236.252C-.236.112-.131 0 0 0" style="fill:#fff;fill-opacity:1;fill-rule:nonzero;stroke:none" transform="matrix(4.7549 0 0 -4.7549 167.095 30.488)"/><path d="M0 0c.218 0 .393.187.393.417A.403.403 0 0 1 0 .831.403.403 0 0 1-.392.417C-.392.187-.217 0 0 0" style="fill:#fff;fill-opacity:1;fill-rule:nonzero;stroke:none" transform="matrix(4.7549 0 0 -4.7549 157.123 10.908)"/><path d="M0 0c.345 0 .626.296.626.661 0 .369-.281.666-.626.666-.347 0-.628-.297-.628-.666C-.628.296-.347 0 0 0" style="fill:#fff;fill-opacity:1;fill-rule:nonzero;stroke:none" transform="matrix(4.7549 0 0 -4.7549 137.867 12.225)"/><path d="M0 0c.279 0 .506.243.506.538A.52.52 0 0 1 0 1.073.522.522 0 0 1-.509.538C-.509.243-.28 0 0 0" style="fill:#fff;fill-opacity:1;fill-rule:nonzero;stroke:none" transform="matrix(4.7549 0 0 -4.7549 186.498 126.095)"/><path d="M0 0a.553.553 0 0 1-.538-.566c0-.312.242-.565.538-.565.296 0 .534.253.534.565C.534-.253.296 0 0 0" style="fill:#fff;fill-opacity:1;fill-rule:nonzero;stroke:none" transform="matrix(4.7549 0 0 -4.7549 186.635 131.098)"/><path d="M0 0c-.356 0-.643-.304-.643-.68 0-.379.287-.681.643-.681.356 0 .642.302.642.681C.642-.304.356 0 0 0" style="fill:#fff;fill-opacity:1;fill-rule:nonzero;stroke:none" transform="matrix(4.7549 0 0 -4.7549 117.577 182.541)"/><path d="M0 0c-.339 0-.613-.29-.613-.647 0-.359.274-.649.613-.649.338 0 .612.29.612.649C.612-.29.338 0 0 0" style="fill:#fff;fill-opacity:1;fill-rule:nonzero;stroke:none" transform="matrix(4.7549 0 0 -4.7549 176.902 140.703)"/><path d="M0 0c0 .224-.169.405-.382.405-.209 0-.38-.181-.38-.405 0-.222.171-.403.38-.403C-.169-.403 0-.222 0 0" style="fill:#fff;fill-opacity:1;fill-rule:nonzero;stroke:none" transform="matrix(4.7549 0 0 -4.7549 158.79 154.61)"/><path d="M0 0c0-.309.236-.558.528-.558.293 0 .531.249.531.558a.546.546 0 0 1-.531.559C.236.559 0 .309 0 0" style="fill:#fff;fill-opacity:1;fill-rule:nonzero;stroke:none" transform="matrix(4.7549 0 0 -4.7549 154.298 165.642)"/><path d="M0 0c-.329 0-.593-.283-.593-.63 0-.343.264-.625.593-.625.327 0 .591.282.591.625C.591-.283.327 0 0 0" style="fill:#fff;fill-opacity:1;fill-rule:nonzero;stroke:none" transform="matrix(4.7549 0 0 -4.7549 156.717 182.826)"/><path d="M0 0a.247.247 0 0 1-.241-.255c0-.141.107-.254.241-.254s.241.113.241.254A.247.247 0 0 1 0 0" style="fill:#fff;fill-opacity:1;fill-rule:nonzero;stroke:none" transform="matrix(4.7549 0 0 -4.7549 167.058 184.952)"/><path d="M0 0c-.145 0-.261-.124-.261-.278 0-.155.116-.279.261-.279.145 0 .262.124.262.279C.262-.124.145 0 0 0" style="fill:#fff;fill-opacity:1;fill-rule:nonzero;stroke:none" transform="matrix(4.7549 0 0 -4.7549 166.96 174.5)"/><path d="M0 0c-.145 0-.262-.125-.262-.279 0-.153.117-.278.262-.278.145 0 .263.125.263.278C.263-.125.145 0 0 0" style="fill:#fff;fill-opacity:1;fill-rule:nonzero;stroke:none" transform="matrix(4.7549 0 0 -4.7549 167.355 153.18)"/><path d="M0 0c-.116 0-.208-.101-.208-.221S-.116-.438 0-.438c.112 0 .205.097.205.217S.112 0 0 0" style="fill:#fff;fill-opacity:1;fill-rule:nonzero;stroke:none" transform="matrix(4.7549 0 0 -4.7549 177.306 153.455)"/><path d="M0 0c-.298-.006-.54.254-.54.571 0 .315.242.57.54.57a.557.557 0 0 0 .542-.57C.542.254.271.002 0 0m-2.056-2.361c-.349-.006-.633.298-.633.667 0 .37.284.67.633.67.349 0 .633-.3.633-.67 0-.369-.314-.662-.633-.667m-.006 3.34c.182 0 .33-.158.33-.348 0-.193-.165-.349-.33-.351-.184-.003-.332.158-.332.351 0 .19.148.348.332.348m.016-8.504c.281 0 .507-.243.507-.536 0-.296-.226-.538-.507-.538-.28 0-.508.242-.508.538 0 .293.228.536.508.536m-.059-3.215c-.18 0-.324.156-.324.345 0 .191.144.344.324.344.18 0 .326-.153.326-.344 0-.189-.146-.345-.326-.345m2.116.908c.294 0 .532-.252.532-.563 0-.308-.238-.562-.532-.562-.294 0-.533.254-.533.562 0 .311.239.563.533.563m-4.08 5.48c-.299-.004-.542.258-.542.573 0 .314.243.57.542.57.298 0 .539-.256.539-.57 0-.315-.267-.569-.539-.573m-.028-2.12c-.275 0-.501.239-.501.532 0 .294.226.529.501.529a.515.515 0 0 0 .503-.529c0-.293-.225-.532-.503-.532m-.093-1.979a.289.289 0 0 0-.28.295c0 .164.126.297.28.297.153 0 .278-.133.278-.297 0-.162-.125-.295-.278-.295m0-2.247a.288.288 0 0 0-.28.294c0 .163.126.294.28.294a.286.286 0 0 0 .278-.294.287.287 0 0 0-.278-.294M-4.429.637c0 .116.088.209.198.209.107 0 .196-.093.196-.209 0-.116-.099-.208-.196-.209-.11-.002-.198.093-.198.209m.254-1.871a.39.39 0 0 0 .379-.399c0-.224-.188-.402-.379-.403-.211-.003-.381.179-.381.403 0 .219.17.399.381.399m.025 4.773c.321 0 .579-.273.579-.611 0-.341-.286-.611-.579-.614-.32-.007-.579.273-.579.614 0 .338.259.611.579.611m-2.047.853c-.352-.005-.637.3-.637.672 0 .372.285.673.637.673.35 0 .633-.301.633-.673 0-.372-.313-.666-.633-.672m-.385-1.509a.38.38 0 0 0 .37.388.377.377 0 0 0 .368-.388.392.392 0 0 0-.368-.391c-.204-.004-.37.174-.37.391m.334-15.978c-.258 0-.469.224-.469.496 0 .275.211.497.469.497.259 0 .47-.222.47-.497a.485.485 0 0 0-.47-.496m-2.062-1.969a.272.272 0 0 0-.265.278.27.27 0 0 0 .265.278.27.27 0 0 0 .264-.278.271.271 0 0 0-.264-.278m-.265-1.897c0 .135.104.244.23.244.127 0 .229-.109.229-.244a.235.235 0 0 0-.229-.242.237.237 0 0 0-.23.242m.21-2.529c-.145 0-.265.127-.265.281 0 .153.12.279.265.279.144 0 .263-.126.263-.279 0-.154-.119-.281-.263-.281m-2.12-.192a.417.417 0 0 0-.404.427c0 .235.181.431.404.431.223 0 .405-.196.405-.431a.417.417 0 0 0-.405-.427m-2.023.104c-.178 0-.32.152-.32.34 0 .184.142.338.32.338.177 0 .32-.154.32-.338 0-.188-.143-.34-.32-.34m-1.944-4.549c-.294 0-.53.25-.53.564 0 .308.236.56.53.56.293 0 .53-.252.53-.56 0-.314-.237-.564-.53-.564m-.37 4.918c0 .122.093.222.208.222.117 0 .21-.1.21-.222 0-.123-.093-.223-.21-.223-.115 0-.208.1-.208.223m.306-1.792a.41.41 0 0 0 .399-.419.41.41 0 0 0-.399-.422c-.22 0-.397.186-.397.422 0 .231.177.419.397.419m.007 35.398c.287 0 .522-.249.522-.553 0-.307-.235-.555-.522-.555-.29 0-.525.248-.525.555 0 .304.235.553.525.553m.036 2.197c.309 0 .561-.266.561-.593 0-.328-.252-.595-.561-.595-.311 0-.561.267-.561.595 0 .327.25.593.561.593m1.99-4.221c.347 0 .629-.298.629-.665 0-.367-.282-.666-.629-.666-.348 0-.63.299-.63.666 0 .367.282.665.63.665m2.057-2.492c.209 0 .378-.182.378-.402 0-.22-.186-.399-.378-.401-.208-.004-.38.181-.38.401 0 .22.172.402.38.402m-2.385-.402c0 .179.138.324.306.324.172 0 .31-.145.31-.324a.333.333 0 0 0-.31-.327c-.168-.001-.306.148-.306.327m-2.074 2.176c0 .202.155.366.346.366a.356.356 0 0 0 .346-.366.356.356 0 0 0-.346-.366.357.357 0 0 0-.346.366m6.474.658c.308 0 .555-.262.555-.584 0-.323-.275-.583-.555-.586-.304-.003-.551.263-.551.586 0 .322.247.584.551.584m-.212-2.834c0 .143.109.258.246.258a.252.252 0 0 0 .246-.258.264.264 0 0 0-.246-.26c-.137-.002-.246.117-.246.26m.246-1.998a.253.253 0 0 0 .246-.26c0-.143-.122-.258-.246-.258-.137-.003-.246.115-.246.258 0 .144.109.26.246.26m2.12-28.381c.29 0 .526-.249.526-.558 0-.309-.236-.561-.526-.561-.293 0-.53.252-.53.561 0 .309.237.558.53.558m.052 2.193a.444.444 0 0 0 .434-.458.445.445 0 0 0-.434-.457.445.445 0 0 0-.434.457c0 .255.193.458.434.458m.003 28.574a.5.5 0 0 0 .488-.513.525.525 0 0 0-.488-.519c-.268-.001-.487.233-.487.519a.5.5 0 0 0 .487.513m-.05 2.256a.446.446 0 0 0 .434-.459.466.466 0 0 0-.434-.461c-.242-.004-.437.207-.437.461s.195.459.437.459m7.436-9.324-.004.064c0 .442.35.461.422.908.082.489-.393 1.016-.967.711-.222-.116-.344-.322-.344-.597 0-.453.348-.513.348-.938 0-.355-.258-.711-.619-.711-.466 0-.703.327-.703.75 0 .36.412.545.412.942 0 .444-.277.738-.717.738-.487 0-.639-.65-1.137-.65-.438 0-.582.634-1.038.634-.534 0-.435-.344-1.004-.513-.064-.016-.195-.093-.428.017-.467.223-.503.666-.503.844 0 .111.129.454.212.508a.81.81 0 0 1 .372.648c-.003.441-.291.774-.706.774-.497 0-.467-.301-.821-.4-.414-.112-.813.176-.813.687 0 .39.324.668.632.668.43 0 .46-.34.896-.34.22-.009.377.059.563.232.238.228.336.62.156.976-.074.151-.189.289-.281.431a.892.892 0 0 0 .005.761.667.667 0 0 0 .677.336.79.79 0 0 0 .389-.168c.302-.244.657-.351 1.007-.054.168.143.228.373.205.586a.658.658 0 0 1-.298.49c-.546.326-.78-.158-1.109-.258a.68.68 0 0 0-.511.043c-.31.195-.505.439-.386.906.133.4.588.785 1.217.372.148-.117.318-.208.463-.206.322.005.64.304.64.676 0 .375-.287.676-.64.676-.213 0-.339-.086-.499-.242-.156-.147-.345-.25-.64-.156-.22.089-.295.21-.384.357-.114.379-.276.505-.501.505-.314 0-.381-.185-.54-.455-.147-.213-.378-.232-.52-.232-.193 0-.407.096-.654.344-.117.116-.207.217-.341.217-.242 0-.41-.254-.581-.42-.138-.139-.297-.256-.535-.256a.564.564 0 0 0-.435.199c-.254.319-.709.35-.933.18-.54-.41-.362-.922-.119-1.254.168-.231.221-.566-.013-.853a.668.668 0 0 0-.478-.262c-.204-.022-.398.069-.547.246-.185.215-.185.625-.064.801.145.216.248.384.194.668-.115.58-.682.793-1.095.544a.908.908 0 0 1-.174-.156.655.655 0 0 0-.541-.24c-.182 0-.432.156-.475.223-.571.846.312 1.127.242 1.896-.032.348-.299.535-.466.84-.017.072-.034.143-.049.219.024.22.255.414.379.636H-17V6.535c-5.59-.06-10.104-4.869-10.104-10.798 0-5.928 4.514-10.739 10.104-10.8v-10.312h3.798c.141.186.321.396.339.64.041.554-.465.706-.496 1.141a.44.44 0 0 0 .066.26c.155.261.471.472.527.765.103.538-.647.796-.333 1.496a.655.655 0 0 0 .814.348c.487-.177.358-.631.806-.631.452 0 .388.351.633.521.424.293.857.12 1.047-.208.148-.259.112-.586.013-.742-.098-.157-.244-.297-.244-.573 0-.388.297-.702.662-.702.368 0 .663.314.663.702a.717.717 0 0 1-.245.54c-.085.097-.126.279-.126.449 0 .383.266.644.665.686a.643.643 0 0 0 .464-.183c.1-.11.144-.224.18-.323.101-.328-.084-.591-.241-.868a.796.796 0 0 1-.146-.455c0-.423.326-.765.726-.765.173 0 .331.068.457.178.261.174.52.424.872.317.147-.045.24-.134.347-.226a.733.733 0 0 1 .558-.263c.42 0 .761.361.761.805a.85.85 0 0 1-.106.402.843.843 0 0 1-.163.207.777.777 0 0 0-.214.399.885.885 0 0 0 .111.601c.128.238.515.359.781.298a.602.602 0 0 0 .247-.141.634.634 0 0 1 .517-.274c.362 0 .655.309.655.694 0 .382-.293.691-.655.691-.441 0-.434-.433-.946-.433a.678.678 0 0 0-.604.336c-.194.303-.111.652-.019.832.067.134.174.251.254.376a.86.86 0 0 1 .194.541c0 .462-.355.836-.79.836a.76.76 0 0 1-.481-.172.187.187 0 0 1-.031-.032l-.005.004a.494.494 0 0 0-.079-.086.565.565 0 0 0-.188-.126c-.479-.226-1.016.339-.779.855.084.178.203.328.384.367.467.102.536-.135.728-.267a.609.609 0 0 1 .341-.092c.398 0 .717.339.717.757a.77.77 0 0 1-.345.647c-.004.003-.004.007-.007.009a.106.106 0 0 1-.06.029.682.682 0 0 1-.305.077c-.371 0-.421-.226-.675-.318a.644.644 0 0 0-.834.366c-.216.519.211 1.144.806.956.225-.07.36-.261.499-.34a.626.626 0 0 1 .332-.092c.413-.007.745.354.745.788a.868.868 0 0 1-.026.199v.025c-.023.192-.22.346-.32.51-.2.331-.051.746.266.963.149.103.402.115.569.057.289-.097.575-.565.399-.891-.174-.327-.315-.387-.315-.655 0-.407.379-.69.61-.69.134 0 .369.028.514.202.332.405.193.698 0 1.037a.74.74 0 0 0-.01.723.699.699 0 0 0 .465.356c.424.078.867-.288.829-.78-.022-.267-.134-.344-.254-.545-.197-.329.033-.792.341-.943.46-.216 1.03.2.916.791-.07.353-.28.367-.331.623-.031.176-.076.31.119.644.21.356.678.381 1.06.09.131-.1.226-.226.372-.275a.72.72 0 0 1 .711.157.813.813 0 0 1 .216.89c-.104.275-.409.463-.422.879-.011.432.309.681.442.994.088.201.125.439-.086.758a.577.577 0 0 1-.402.256.818.818 0 0 1-.571-.135c-.235-.153-.49-.379-.8-.3-.08.022-.28.044-.387.179-.366.455-.131.822.037 1.197.137.309.207.662-.123.98-.248.239-.67.204-.945 0-.129-.091-.228-.144-.355-.238-.336-.128-.6-.049-.785.137a.834.834 0 0 0-.207.537c.015.428.456.553.456 1.13 0 .656-.565.631-.565 1.359 0 .16.107.402.241.516.167.143.296.2.413.2.709 0 .53-.459 1.129-.459.19 0 .387.105.524.251.305.321.2.821.047.989a.81.81 0 0 0-.111.942.671.671 0 0 0 .841.316C.32-.885.3-1.011.57-1.158c.414-.239.883 0 1.04.363.309.713-.316.859-.341 1.343-.02.516.501.684.552 1.105.059.46-.563.723-.637 1.146" style="fill:#fff;fill-opacity:1;fill-rule:nonzero;stroke:none" transform="matrix(4.7549 0 0 -4.7549 172.38 79.364)"/><path d="M0 0a.332.332 0 0 1-.325-.342c0-.188.144-.342.325-.342.177 0 .322.154.322.342C.322-.152.177 0 0 0" style="fill:#fff;fill-opacity:1;fill-rule:nonzero;stroke:none" transform="matrix(4.7549 0 0 -4.7549 157.174 194.67)"/><path d="M0 0c-.277 0-.501-.237-.501-.533 0-.293.224-.53.501-.53.279 0 .504.237.504.53A.518.518 0 0 1 0 0" style="fill:#fff;fill-opacity:1;fill-rule:nonzero;stroke:none" transform="matrix(4.7549 0 0 -4.7549 147.358 193.591)"/><path d="M0 0a.52.52 0 0 1-.504-.533c0-.293.228-.53.504-.53.278 0 .5.237.5.53C.5-.237.278 0 0 0" style="fill:#fff;fill-opacity:1;fill-rule:nonzero;stroke:none" transform="matrix(4.7549 0 0 -4.7549 137.867 193.591)"/><path d="M0 0c-.162 0-.294-.144-.294-.313 0-.175.132-.311.294-.311.164 0 .297.136.297.311C.297-.144.164 0 0 0" style="fill:#fff;fill-opacity:1;fill-rule:nonzero;stroke:none" transform="matrix(4.7549 0 0 -4.7549 127.811 194.809)"/><path d="M0 0a.438.438 0 0 1-.425-.45c0-.248.189-.448.425-.448.234 0 .423.2.423.448S.234 0 0 0" style="fill:#fff;fill-opacity:1;fill-rule:nonzero;stroke:none" transform="matrix(4.7549 0 0 -4.7549 117.466 194.243)"/><path d="M57.15 621.231c-.525 0-.918-.421-.984-.934l-.477-3.018c-.122-.566-.823-.785-.823-.785h.009c-.449-.101-.89-.224-1.323-.371-.101-.02-.718-.14-1.059.248l-1.845 2.361c-.297.412-.837.569-1.292.292l-1.981-1.21c-.454-.279-.596-.85-.407-1.328l1.013-2.871c.158-.552-.345-1.111-.345-1.111l.01.005c-.335-.324-.656-.66-.96-1.015l.003.009s-.528-.534-1.05-.364l-2.711 1.071a.972.972 0 0 1-1.257-.431l-1.145-2.096a1.095 1.095 0 0 1 .275-1.368l2.233-1.947c.368-.362.252-1.023.233-1.124a16.278 16.278 0 0 1-.351-1.396v.008s-.206-.743-.738-.871l-2.856-.505a1.034 1.034 0 0 1-.884-1.04v-2.423c0-.554.398-.97.884-1.036l2.856-.507c.532-.13.738-.87.738-.87v.01c.097-.474.214-.943.351-1.4.019-.107.135-.761-.233-1.124l-2.233-1.946a1.096 1.096 0 0 1-.275-1.369l1.145-2.097a.969.969 0 0 1 1.257-.432l2.711 1.072c.522.17 1.05-.364 1.05-.364l-.006.01c.307-.351.628-.692.963-1.016l-.01.007s.503-.56.345-1.112l-1.013-2.869c-.189-.48-.047-1.051.407-1.33l1.981-1.21c.455-.277.995-.118 1.292.292l1.845 2.364c.35.395.989.258 1.064.242.433-.147.875-.266 1.323-.371h-.014s.701-.216.823-.781l.477-3.02c.066-.512.459-.935.984-.935h1.185v13.434c-4.037 0-7.311 3.463-7.311 7.734 0 4.273 3.274 7.735 7.311 7.735v13.103z" style="fill:url(#b);stroke:none" transform="matrix(4.7549 0 0 -4.7549 -182.77 2953.997)"/></svg>